<svg xmlns="http://www.w3.org/2000/svg" viewBox="0 0 512 512" width="512" height="512"><path d="M153 344l-56-8a8 8 0 00-9 8v24h-8a24 24 0 1024 24v-39l40 6v17h-8a24 24 0 1024 24v-48a8 8 0 00-7-8zm-65 48a8 8 0 11-8-8h8zm56 8a8 8 0 11-8-8h8zM474 240l-26-6v-8l22 6a8 8 0 004-16l-32-8a8 8 0 00-10 8v32h-8a24 24 0 1024 24v-22l22 6a8 8 0 004-16zm-42 32a8 8 0 11-8-8h8z"/><path d="M392 72V40a8 8 0 00-1-4l-8-16a8 8 0 00-7-4h-24a8 8 0 00-8 8v14l-7 14a8 8 0 000 8l7 13-7 33-41 13-13-5-7-11a32 32 0 009-23V44a28 28 0 00-52-13l-1 1a27 27 0 00-16 46l5 6a32 32 0 009 18l-4 12-21 7-73 40a8 8 0 00-4 5l-16 80a8 8 0 000 2v24a8 8 0 006 8l32 8a8 8 0 009-4l8-16a8 8 0 000-8l-6-13 14-50 31-18 8 10a50 50 0 0110 30v21a8 8 0 008 8h8v16a46 46 0 009 27l22 68-38 52a8 8 0 000 9l-15 14a8 8 0 00-1 9l16 40a8 8 0 003 4l16 8a8 8 0 004 1h8a8 8 0 006-2l4-5 10 6a8 8 0 004 1h32a8 8 0 007-11l-16-36 46-64a56 56 0 0011-33v-3a56 56 0 00-8-29l-40-66v-33a103 103 0 00-12-49l71-29a8 8 0 005-6l8-65zm-88 62l16-6v22l-16 6zm-37-15a22 22 0 01-26-1l3-7a32 32 0 0018 0zm2-39a16 16 0 01-31 3l19-19h12zm-44-25a11 11 0 0110-7h2a8 8 0 007-4l3-5a12 12 0 0122 5v4h-16a8 8 0 00-5 2l-19 19-2-2a11 11 0 01-2-12zm-25 87v21l-13 8-8-17zm-40 48l-16 56a8 8 0 001 6l6 12-3 7-20-5v-17l15-76 22-12 9 18-10 6a8 8 0 00-4 5zm67-10l-11-15v-31l14-5a38 38 0 0049 0l9 4v35a8 8 0 001 4 87 87 0 0115 49v11h-64v-13a66 66 0 00-13-39zm60 185a8 8 0 001-8l-14-39 36 35-48 77-12-14zm-29 115l-12-6-13-32 10-10 10 12a8 8 0 007 12l-6 13a8 8 0 003 10l2 1zm32 0l-19-11 6-13h19l11 24zm56-151a40 40 0 016 20v3a40 40 0 01-8 24l-47 64h-22l52-84a8 8 0 00-1-10l-61-61a30 30 0 01-9-21v-16h48v8a8 8 0 001 4zm30-257l-7 58-33 13v-20l11-3a8 8 0 005-6l8-40a8 8 0 00-1-6l-6-12 6-12a8 8 0 001-4v-8h11l5 10z"/><path d="M222 298l-5-4a30 30 0 01-9-22 8 8 0 00-16 0 46 46 0 0014 33l4 5a8 8 0 1012-12zM101 176a8 8 0 0011-5l2-7a35 35 0 0118-21 8 8 0 00-8-14 51 51 0 00-25 29l-3 7a8 8 0 005 11zM152 132a8 8 0 004-1l8-4a8 8 0 10-8-14l-8 4a8 8 0 004 15zM410 154l6-15a8 8 0 00-16-6l-5 16a11 11 0 01-6 7 8 8 0 106 15 27 27 0 0015-17zM365 165l-8 4a8 8 0 106 14l8-3a8 8 0 00-6-15zM200 248a8 8 0 008-8v-8a8 8 0 00-16 0v8a8 8 0 008 8z"/></svg>