<svg height="512" viewBox="0 0 512 512" width="512" xmlns="http://www.w3.org/2000/svg"><path d="M505 300l-61-22a10 10 0 00-7 18l31 12a46 46 0 00-7 9l-49 89a143 143 0 01-262-27l25-29c6-8 9-18 8-28l-18-156c-1-11-7-20-16-27l-26-16-2-14c-3-31-28-55-59-57 21-12 41-19 54-20 22-2 52 2 61 54v1l43 267c3 21 20 35 41 35 19 0 35-12 40-30l22-83c3-8 2-15 1-21l31 11a10 10 0 006-19l-55-20a10 10 0 00-10 17s12 12 8 26l-22 83c-3 10-11 16-21 16-11 0-20-7-21-18l-10-62 18-3 1 4a10 10 0 0019-4l-5-26a10 10 0 00-19 3v3l-18 3-7-47 18-3 1 4a10 10 0 0020-4l-5-26a10 10 0 10-20 4v2l-17 4-8-47 19-3v4a10 10 0 0020-4l-5-26a10 10 0 00-20 3l1 3-18 3-8-53c-6-35-25-76-83-71-29 2-63 22-85 40H10a10 10 0 000 20h48c23 0 41 17 43 39l24 242a163 163 0 00305 63l49-89c5-8 11-11 20-8a10 10 0 006-19zM138 156c4 3 7 8 7 13l18 155c1 5-1 9-4 13l-14 17v-3l-20-203z"/><path d="M512 21a10 10 0 00-13-9L394 42c-5 1-7 5-7 10v95c-7-1-15-1-23 1-21 5-37 20-37 35 0 21 26 24 42 20 15-4 38-16 38-33V59l85-24v95c-6-1-14-1-22 1-21 5-37 20-37 35 0 21 26 24 42 20 18-4 37-17 37-38zM381 175c-4 4-10 7-17 8-10 3-16 1-17 0 0-2 1-4 5-7 5-4 11-7 17-9 11-2 17 0 18 1-1 1-2 4-6 7zm106-17c-5 4-11 7-17 9-11 2-17 0-17-1s1-4 5-7c4-4 10-7 17-9 10-2 16 0 17 1 0 1-1 4-5 7zM391 278c5 7 17 4 19-4 1-10-10-16-17-9-4 3-4 9-2 13z"/></svg>